<svg xmlns="http://www.w3.org/2000/svg" xmlns:xlink="http://www.w3.org/1999/xlink" width="14" height="14"><path d="M1439.98,1904.5l-2.8-2.79a5.536,5.536,0,0,0,1.01-3.25,5.66,5.66,0,0,0-.45-2.23,5.583,5.583,0,0,0-3.05-3.06,5.739,5.739,0,0,0-7.97,5.29,5.612,5.612,0,0,0,.45,2.22,5.737,5.737,0,0,0,5.29,3.51,5.536,5.536,0,0,0,3.25-1.01l2.79,2.79a1,1,0,0,0,.74.31,1.031,1.031,0,0,0,.73-0.31A1.038,1.038,0,0,0,1439.98,1904.5Zm-4.94-3.47a3.622,3.622,0,0,1-5.16,0,3.645,3.645,0,0,1,2.58-6.22A3.642,3.642,0,0,1,1435.04,1901.03Z" transform="translate(-1426.72 -1892.72)"/></svg>
